<?xml version="1.0" encoding="UTF-8"?>
<svg id="Layer_2" data-name="Layer 2" xmlns="http://www.w3.org/2000/svg" xmlns:xlink="http://www.w3.org/1999/xlink" viewBox="0 0 450 450">
  <defs>
    <style>
      .cls-1 {
        fill: none;
      }

      .cls-1, .cls-2, .cls-3, .cls-4, .cls-5, .cls-6, .cls-7 {
        stroke-width: 0px;
      }

      .cls-2 {
        fill: url(#linear-gradient);
      }

      .cls-3 {
        fill: #000;
      }

      .cls-4 {
        fill: url(#linear-gradient-4);
      }

      .cls-5 {
        fill: url(#linear-gradient-2);
      }

      .cls-6 {
        fill: url(#linear-gradient-3);
      }

      .cls-7 {
        fill: url(#linear-gradient-5);
      }
    </style>
    <linearGradient id="linear-gradient" x1="202.84" y1="213.12" x2="207.22" y2="220.71" gradientUnits="userSpaceOnUse">
      <stop offset="0" stop-color="#facc3b"/>
      <stop offset="1" stop-color="#f6921e"/>
    </linearGradient>
    <linearGradient id="linear-gradient-2" x1="278.9" y1="107.81" x2="278.9" y2="344.2" gradientUnits="userSpaceOnUse">
      <stop offset="0" stop-color="#f6921e"/>
      <stop offset="1" stop-color="#ec1c24"/>
    </linearGradient>
    <linearGradient id="linear-gradient-3" x1="225.66" y1="105.04" x2="225.66" y2="363.47" gradientUnits="userSpaceOnUse">
      <stop offset="0" stop-color="#f6921e"/>
      <stop offset="1" stop-color="#ec1c24"/>
    </linearGradient>
    <linearGradient id="linear-gradient-4" x1="213.68" y1="330.27" x2="213.68" y2="103.68" gradientUnits="userSpaceOnUse">
      <stop offset="0" stop-color="#f05a24"/>
      <stop offset="1" stop-color="#faaf3b"/>
    </linearGradient>
    <linearGradient id="linear-gradient-5" x1="214.52" y1="94.5" x2="214.52" y2="314.92" gradientUnits="userSpaceOnUse">
      <stop offset="0" stop-color="#facc3b"/>
      <stop offset="1" stop-color="#f6921e"/>
    </linearGradient>
  </defs>
  <path class="cls-3" d="M130.96,289.1h0c-2.24-2.24-2.21-5.87.05-8.08l164.89-160.69c1.06-1.04,2.76-1.02,3.8.02h0c1.05,1.05,1.06,2.74.02,3.8l-160.69,164.89c-2.21,2.26-5.84,2.28-8.08.05Z"/>
  <path class="cls-2" d="M201.84,213.7h-.01s6.41,6.42,6.41,6.42l-6.4-6.42Z"/>
  <path class="cls-1" d="M245.61,120.2l1.57-1.57c-.55.5-1.07,1.02-1.57,1.57Z"/>
  <path class="cls-5" d="M275.25,114.88l7.29,7.29c-2.18-2.83-4.61-5.26-7.29-7.29Z"/>
  <path class="cls-6" d="M287.72,195l-4.29-4.29-.62-.61-22.27-22.28-6.4-6.38-.02-.02-7.74-7.75c-4.38-4.39-7.1-10.44-7.1-17.14,0-6.29,2.4-12.02,6.33-16.33.5-.55,1.02-1.07,1.57-1.57,4.31-3.93,10.04-6.33,16.33-6.33,10.76,0,17.13,6.66,23.04,16.69l.24-.24c-1.28-2.39-2.7-4.58-4.25-6.58l-7.29-7.29c-5.02-3.8-10.89-6.12-17.5-6.83-1.4-.15-2.83-.25-4.3-.25-14.5,0-27.02,8.41-32.98,20.64-2.35,4.83-3.67,10.27-3.67,16.01,0,8.45,2.84,16.21,7.66,22.4l2.78,3.21c.2.21.39.41.62.62l8.49,8.49,6.41,6.41,14.95,14.95s-.07,0-.1,0c.9.84,1.8,1.68,2.67,2.56,1.77,1.77,3.43,3.61,5.02,5.54,10.5,12.83,16.8,29.24,16.8,47.12,0,1.32-.03,2.62-.09,3.92-.53,9.92-2.98,19.33-7.01,27.85-11.92,25.25-37.61,42.73-67.38,42.73s-54.19-16.63-66.49-40.86c-.25-.48-.49-.96-.73-1.45l-.44.43h0c.27.66.54,1.31.81,1.96,13.6,31.67,45.06,53.85,81.7,53.85,29.9,0,56.34-14.76,72.46-37.39,10.33-14.52,16.4-32.28,16.4-51.47,0-23.31-8.95-44.51-23.62-60.34Z"/>
  <path class="cls-4" d="M220.48,128.45c-2.35,4.83-3.67,10.27-3.67,16.01,0,8.45,2.84,16.21,7.66,22.4l2.78,3.21c.2.21.39.41.62.62l8.49,8.49,6.41,6.41,14.95,14.95s-.07.01-.1.01c.9.84,1.8,1.68,2.67,2.56,1.77,1.77,3.43,3.61,5.02,5.54,10.5,12.83,16.8,29.24,16.8,47.12,0,1.32-.03,2.62-.09,3.92-.53,9.92-2.98,19.33-7.01,27.85-11.92,25.25-37.61,42.73-67.38,42.73s-54.19-16.63-66.49-40.86c-.25-.48-.49-.96-.73-1.45h0s1.49-1.49,1.49-1.49c.08.12.16.24.24.36,10.57,16.85,29.34,28.09,50.71,28.09,29.84,0,54.6-21.88,59.07-50.46.5-3.05.74-6.16.74-9.35,0-13.99-4.44-26.4-12.49-36.58l-.36-.47-4.4-4.98c-.18-.18-.36-.36-.54-.55l-9.51-9.48-.02-.03-6.38-6.39-.03-.03-14.19-15.25c-2.48-3.49-4.5-7.31-6-11.39-1.94-5.3-3.02-11.04-3.02-17.02,0-4.42.58-8.68,1.66-12.74,2.27-8.49,6.74-16.06,12.77-22.09,8.91-8.91,21.24-14.43,34.84-14.43s26.89,5.6,35.55,15.31c1.19,1.34,4.65,6.16,6.4,9.61l-.15.15c-7.19-13.39-18.64-20.94-33.33-20.94s-27.02,8.41-32.98,20.64Z"/>
  <path class="cls-7" d="M287.14,128.39l-.2.21c-1.75-3.45-5.21-8.27-6.4-9.61-8.66-9.71-21.53-15.31-35.55-15.31s-25.93,5.52-34.84,14.43c-6.03,6.03-10.5,13.6-12.77,22.09-1.08,4.06-1.66,8.32-1.66,12.74,0,5.98,1.08,11.72,3.02,17.02,1.5,4.08,3.52,7.9,6,11.39l14.19,15.25.03.03,6.38,6.39.02.03,9.51,9.48c.18.19.36.37.54.55l4.4,4.98.36.47c8.05,10.18,12.49,22.59,12.49,36.58,0,3.19-.24,6.3-.74,9.35-4.47,28.58-29.23,50.46-59.07,50.46-21.37,0-40.14-11.24-50.71-28.09-.08-.12-.16-.24-.24-.36h0s.45-.46.45-.46c.02.03.05.05.07.08,8.54,9.75,21.09,15.92,35.09,15.92,25.79,0,46.68-20.9,46.68-46.67,0-12.19-4.67-23.28-12.33-31.59l-.07-.08c-.79-.87-1.64-1.7-2.5-2.5l-.1-.11-.95-.94-6.4-6.42h-.01l-12.49-12.48-2.22-2.22c-5.13-5.41-9.3-11.74-12.23-18.72-3.08-7.35-4.79-15.44-4.79-23.91,0-21.45,10.93-40.37,27.52-51.46,9.83-6.57,21.64-10.41,34.35-10.41,24.1,0,44.96,13.78,55.17,33.89Z"/>
  <circle class="cls-3" cx="261.57" cy="130.05" r="6.04"/>
  <path class="cls-3" d="M159.38,270.86c9.1-12.02,21.9-26.63,21.9-26.63l-2.7-2.7-2.7-2.7s-15.56,14.12-26.63,21.9c-9.85,6.92-18.3,13.05-22.2,20.05-4.75,8.52-.25,12.54-.25,12.54,0,0,4.01,4.49,12.54-.25,7-3.9,12.79-12.6,20.05-22.2Z"/>
</svg>