<svg width="3500" height="950" xmlns="http://www.w3.org/2000/svg" xmlns:xlink="http://www.w3.org/1999/xlink" xml:space="preserve" overflow="hidden"><defs><clipPath id="clip0"><rect x="450" y="763" width="3500" height="950"/></clipPath></defs><g clip-path="url(#clip0)" transform="translate(-450 -763)"><path d="M1314 1279.47C1314 1163.01 1267.94 1057.38 1193.16 979.631L965.081 1226.91C988.308 1263.68 985.149 1312.8 954.276 1346.28 917.417 1386.23 855.184 1388.73 815.282 1351.83 775.38 1314.93 772.883 1252.62 809.743 1212.68 840.07 1179.8 887.539 1172.36 925.647 1191.28L1154.08 943.627C1086.76 888.9 1002.7 854.126 910.766 848.054 910.825 848.035 910.864 848.015 910.922 847.996 910.162 847.937 909.401 847.957 908.641 847.918 899.826 847.371 890.952 847 882 847 867.081 847 852.356 847.762 837.827 849.226 823.297 850.71 809.002 852.896 794.941 855.786 766.818 861.546 739.69 870.039 713.85 880.993 688.009 891.926 663.455 905.32 640.462 920.862 611.734 940.289 585.465 963.093 562.218 988.69 552.915 998.921 544.1 1009.62 535.811 1020.73 519.234 1042.93 504.724 1066.79 492.594 1092 484.519 1108.77 477.596 1126.2 471.706 1144.09 468.235 1154.63 465.134 1165.35 462.482 1176.24 454.388 1209.34 450 1243.9 450 1279.51L450 1279.51C450 1316.84 454.72 1353.06 463.593 1387.6 481.34 1456.7 515.743 1519.1 562.218 1570.31 576.162 1585.68 591.198 1600.03 607.19 1613.24 617.858 1622.05 628.955 1630.37 640.442 1638.14 649.491 1644.25 658.852 1649.95 668.37 1655.38 674.279 1658.76 680.266 1662 686.351 1665.08 745.092 1695.03 811.538 1712 881.981 1712 884.536 1712 887.071 1711.96 889.606 1711.9 896.061 1711.77 902.478 1711.47 908.875 1711.08 909.557 1711.04 910.24 1711.06 910.903 1711 910.844 1710.98 910.786 1710.97 910.727 1710.93 1135.9 1696.11 1314 1508.67 1314 1279.49Z" fill="#C74325" fill-rule="evenodd"/><path d="M536 1021C544.161 1009.9 552.84 999.238 562 989 552.84 999.218 544.161 1009.9 536 1021Z" fill="#DA4C2A" fill-rule="evenodd"/><path d="M471 1144C476.921 1126.15 483.883 1108.74 492 1092 483.883 1108.74 476.921 1126.15 471 1144Z" fill="#DA4C2A" fill-rule="evenodd"/><path d="M492 1092C504.35 1066.89 519.123 1043.12 536 1021 519.123 1043.12 504.35 1066.89 492 1092Z" fill="#DA4C2A" fill-rule="evenodd"/><path d="M640 1638C628.6 1630.2 617.587 1621.84 607 1613 617.587 1621.84 628.6 1630.2 640 1638Z" fill="#DA4C2A" fill-rule="evenodd"/><path d="M562 1570C515.329 1519.01 480.815 1456.83 463 1388 480.815 1456.83 515.349 1519.01 562 1570Z" fill="#DA4C2A" fill-rule="evenodd"/><path d="M461.937 1176C454.196 1209.2 450 1243.86 450 1279.58 450 1315.3 454.514 1353.34 463 1388 454.514 1353.36 450 1317.03 450 1279.58 450 1242.14 454.196 1209.21 461.937 1176Z" fill="#DA4C2A" fill-rule="evenodd"/><path d="M882 847C891.073 847 900.066 847.404 909 848 900.066 847.404 891.073 847 882 847Z" fill="#DA4C2A" fill-rule="evenodd"/><path d="M668 1655C731.142 1691.2 804.154 1712 882.05 1712 891.099 1712 900.069 1711.63 909 1711.08 900.089 1711.63 891.118 1712 882.05 1712 804.154 1712 731.142 1691.2 668 1655Z" fill="#DA4C2A" fill-rule="evenodd"/><path d="M911 848.571C910.333 848.143 909.667 848.286 909 848 909.615 848.286 910.248 848.714 910.863 849.002 910.915 848.86 910.949 848.714 911 848.571Z" fill="#BB311E" fill-rule="evenodd"/><path d="M668 1655C658.458 1649.65 649.073 1644.05 640 1638 649.073 1644.03 658.458 1649.65 668 1655Z" fill="#BB311E" fill-rule="evenodd"/><path d="M911 1711.57C911 1711.57 910.885 1711.29 910.827 1711 910.212 1711.29 909.615 1711.72 909 1712 909.673 1711.72 910.346 1711.86 911 1711.43Z" fill="#BB311E" fill-rule="evenodd"/><path d="M795 856C809.099 852.917 823.452 850.583 838 849 823.432 850.583 809.099 852.917 795 856Z" fill="#BB311E" fill-rule="evenodd"/><path d="M462 1176C464.607 1165.16 467.613 1154.51 471 1144 467.613 1154.49 464.588 1165.16 462 1176Z" fill="#BB311E" fill-rule="evenodd"/><path d="M640 921C663.166 905.408 687.944 891.97 714 881 687.944 891.97 663.185 905.408 640 921Z" fill="#BB311E" fill-rule="evenodd"/><path d="M609.202 1279.49C609.202 1081.14 734.94 912.193 911 848.054 910.298 848.015 909.576 847.957 908.873 847.918 900.054 847.371 891.175 847 882.219 847 867.292 847 852.56 847.761 838.024 849.226 823.487 850.71 809.184 852.896 795.116 855.786 766.979 861.546 739.837 870.039 713.984 880.993 688.13 891.926 663.563 905.32 640.558 920.862 611.817 940.289 585.533 963.093 562.274 988.69 552.967 998.921 544.147 1009.62 535.854 1020.73 519.269 1042.93 504.752 1066.79 492.615 1092 484.537 1108.77 477.61 1126.2 471.717 1144.09 468.244 1154.63 465.142 1165.35 462.488 1176.24 454.39 1209.34 450 1243.9 450 1279.51 450 1315.12 454.722 1353.06 463.6 1387.6 481.356 1456.7 515.776 1519.12 562.274 1570.31 576.226 1585.68 591.27 1600.03 607.27 1613.24 617.943 1622.05 629.046 1630.37 640.539 1638.14 649.592 1644.25 658.958 1649.93 668.48 1655.38 731.525 1691.34 804.423 1712 882.2 1712 891.234 1712 900.19 1711.63 909.108 1711.08 909.732 1711.04 910.337 1710.98 910.961 1710.95 734.92 1646.81 609.182 1477.86 609.182 1279.51Z" fill="#DA4C2A" fill-rule="evenodd"/><path d="M2150.75 1310.28C2137.63 1342.01 2106.4 1364.36 2069.89 1364.36 2021.59 1364.36 1982.43 1325.24 1982.43 1276.99 1982.43 1228.74 2021.59 1189.62 2069.89 1189.62 2106.4 1189.62 2137.63 1211.97 2150.75 1243.7L2365 1243.7 2365 1058.75 2214.25 1058.75 2214.25 1100.45C2178.49 1065.56 2129.94 1046 2071.18 1046 1943.43 1046 1854 1149.79 1854 1277.42 1854 1405.05 1943.43 1508 2071.18 1508 2130.8 1508 2181.89 1481.63 2214.25 1445.88L2215.95 1445.88 2215.95 1495.23 2364.98 1495.23 2364.98 1310.3 2150.73 1310.3Z" fill="#C74325" fill-rule="evenodd"/><path d="M1782.49 1046C1696.37 1046 1648.62 1121.69 1648.62 1121.69L1646.92 1121.69 1646.92 1058.77 1496 1058.77 1496 1495 1646.92 1495 1646.92 1265.4C1646.92 1254.35 1658.01 1176.97 1736.46 1176.97 1786.77 1176.97 1814.91 1200.77 1814.91 1200.77L1878 1073.21C1878 1073.21 1838.77 1046 1782.5 1046Z" fill="#C74325" fill-rule="evenodd"/><path d="M2995.5 983C3034.74 983 3068 948.909 3068 908 3068 867.091 3034.74 833 2995.5 833 2956.26 833 2923 867.091 2923 908 2923 948.909 2956.26 983 2995.5 983Z" fill="#C74325" fill-rule="evenodd"/><path d="M2724.49 1100.17C2688.77 1065.26 2640.29 1045.68 2581.61 1045.68 2465.52 1045.68 2381.37 1131.79 2367.12 1243.53L2499.58 1243.53C2512.68 1211.77 2543.87 1189.41 2580.33 1189.41 2628.55 1189.41 2667.66 1228.56 2667.66 1276.84 2667.66 1325.13 2628.55 1364.28 2580.33 1364.28 2543.87 1364.28 2512.68 1341.91 2499.58 1310.16L2367 1310.16C2380.94 1422.17 2465.23 1508 2581.59 1508 2641.13 1508 2692.14 1481.61 2724.47 1445.84L2726.16 1445.84 2726.16 1495.22 2875 1495.22 2875 763 2724.47 763 2724.47 1100.17Z" fill="#C74325" fill-rule="evenodd"/><path d="M3817.38 1219.57C3779.96 1207.66 3749.35 1200.85 3749.35 1177.88 3749.35 1157.46 3762.96 1151.51 3796.11 1151.51 3842.04 1151.51 3893.05 1178.74 3893.05 1178.74L3942.36 1080.03C3942.36 1080.03 3880.28 1046 3796.09 1046 3681.29 1046 3605.62 1097.06 3605.62 1186.38 3605.62 1251.89 3649.85 1282.53 3694.06 1305.5 3743.37 1331.03 3790.99 1333.59 3790.99 1365.06 3790.99 1393.99 3765.47 1396.54 3744.23 1396.54 3695.75 1396.54 3636.22 1346.34 3636.22 1346.34L3575 1449.3C3575 1449.3 3637.92 1508 3743.37 1508 3832.66 1508 3950 1487.58 3950 1359.12 3950 1269.77 3875.17 1237.46 3817.34 1219.57Z" fill="#C74325" fill-rule="evenodd"/><path d="M2917 1047 3071 1047 3071 1495 2917 1495Z" fill="#C74325" fill-rule="evenodd"/><path d="M3412.28 1266C3412.28 1352.05 3401 1385.28 3338 1385.28 3275 1385.28 3263.72 1352.05 3263.72 1266L3263.72 1047 3113 1047 3113 1302.64C3113 1449.21 3174.52 1508 3338 1508 3501.48 1508 3563 1449.21 3563 1302.64L3563 1047 3412.28 1047 3412.28 1266Z" fill="#C74325" fill-rule="evenodd"/></g></svg>